<svg width="37" height="37" viewBox="0 0 37 37" fill="none" xmlns="http://www.w3.org/2000/svg">
<path d="M35.2656 35.2659V20.2346H35.8437C36.0772 20.2346 36.2883 20.0936 36.3779 19.8779C36.4675 19.6617 36.4178 19.4131 36.2524 19.2478L31.6274 14.6228C31.5193 14.5141 31.3719 14.4534 31.2187 14.4534H23.1249V9.82839H24.2812C24.5147 9.82839 24.7258 9.68733 24.8154 9.47169C24.905 9.25547 24.8553 9.00688 24.6899 8.84153L18.9087 3.06028C18.6826 2.83424 18.3172 2.83424 18.0912 3.06028L12.3099 8.84153C12.1446 9.00688 12.0949 9.25547 12.1845 9.47169C12.2741 9.68733 12.4851 9.82839 12.7187 9.82839H13.8749V14.4534H5.78118C5.62797 14.4534 5.48055 14.5141 5.37244 14.6228L0.747442 19.2478C0.582098 19.4131 0.532379 19.6617 0.621989 19.8779C0.711598 20.0936 0.922614 20.2346 1.15618 20.2346H1.7343V35.2659H0.578051V36.4221H36.4218V35.2659H35.2656ZM34.1093 35.2659H29.4843V24.8596H30.6406C30.8741 24.8596 31.0851 24.7186 31.1747 24.5029C31.2644 24.2867 31.2146 24.0381 31.0493 23.8728L27.4111 20.2346H34.1093V35.2659ZM20.8124 35.2659H16.1874V34.1096C16.1874 32.8343 17.2246 31.7971 18.4999 31.7971C19.7753 31.7971 20.8124 32.8343 20.8124 34.1096V35.2659ZM18.4999 30.6409C16.5869 30.6409 15.0312 32.1966 15.0312 34.1096V35.2659H8.6718V24.8596H28.3281V35.2659H21.9687V34.1096C21.9687 32.1966 20.4129 30.6409 18.4999 30.6409ZM13.5361 17.9221H23.4637L29.245 23.7034H7.7549L13.5361 17.9221ZM19.6562 16.7659H17.3437V14.4534C17.3437 13.8157 17.8623 13.2971 18.4999 13.2971C19.1376 13.2971 19.6562 13.8157 19.6562 14.4534V16.7659ZM30.9793 15.6096L34.4481 19.0784H26.2549L24.1118 16.9353C24.0037 16.8266 23.8563 16.7659 23.7031 16.7659H23.1249V15.6096H30.9793ZM18.4999 4.28649L22.8856 8.67214H14.1143L18.4999 4.28649ZM21.9687 9.82839V16.7659H20.8124V14.4534C20.8124 13.178 19.7753 12.1409 18.4999 12.1409C17.2246 12.1409 16.1874 13.178 16.1874 14.4534V16.7659H15.0312V9.82839H21.9687ZM6.02052 15.6096H13.8749V16.7659H13.2968C13.1436 16.7659 12.9962 16.8266 12.8881 16.9353L10.745 19.0784H2.55177L6.02052 15.6096ZM2.89055 20.2346H9.58871L5.95057 23.8728C5.78522 24.0381 5.7355 24.2867 5.82511 24.5029C5.91472 24.7186 6.12574 24.8596 6.3593 24.8596H7.51555V35.2659H2.89055V20.2346Z" fill="#7E8B9B"/>
<path d="M15.0312 26.0156H11.5625C11.2434 26.0156 10.9844 26.2746 10.9844 26.5938V30.0625C10.9844 30.3816 11.2434 30.6406 11.5625 30.6406H15.0312C15.3504 30.6406 15.6094 30.3816 15.6094 30.0625V26.5938C15.6094 26.2746 15.3504 26.0156 15.0312 26.0156ZM14.4531 29.4844H12.1406V27.1719H14.4531V29.4844Z" fill="#7E8B9B"/>
<path d="M25.4376 30.6406C25.7567 30.6406 26.0157 30.3816 26.0157 30.0625V26.5938C26.0157 26.2746 25.7567 26.0156 25.4376 26.0156H21.9688C21.6497 26.0156 21.3907 26.2746 21.3907 26.5938V30.0625C21.3907 30.3816 21.6497 30.6406 21.9688 30.6406H25.4376ZM22.5469 27.1719H24.8594V29.4844H22.5469V27.1719Z" fill="#7E8B9B"/>
<path d="M26.5938 6.35938C27.55 6.35938 28.3282 5.58122 28.3282 4.625C28.3282 3.66878 27.55 2.89062 26.5938 2.89062C25.6376 2.89062 24.8594 3.66878 24.8594 4.625C24.8594 5.58122 25.6376 6.35938 26.5938 6.35938ZM26.5938 4.04688C26.9124 4.04688 27.1719 4.30645 27.1719 4.625C27.1719 4.94355 26.9124 5.20312 26.5938 5.20312C26.2753 5.20312 26.0157 4.94355 26.0157 4.625C26.0157 4.30645 26.2753 4.04688 26.5938 4.04688Z" fill="#7E8B9B"/>
<path d="M12.1406 4.04688C13.0968 4.04688 13.875 3.26872 13.875 2.3125C13.875 1.35628 13.0968 0.578125 12.1406 0.578125C11.1844 0.578125 10.4062 1.35628 10.4062 2.3125C10.4062 3.26872 11.1844 4.04688 12.1406 4.04688ZM12.1406 1.73438C12.4592 1.73438 12.7188 1.99395 12.7188 2.3125C12.7188 2.63105 12.4592 2.89062 12.1406 2.89062C11.8221 2.89062 11.5625 2.63105 11.5625 2.3125C11.5625 1.99395 11.8221 1.73438 12.1406 1.73438Z" fill="#7E8B9B"/>
<path d="M4.625 12.1406C5.58122 12.1406 6.35938 11.3625 6.35938 10.4062C6.35938 9.45003 5.58122 8.67188 4.625 8.67188C3.66878 8.67188 2.89062 9.45003 2.89062 10.4062C2.89062 11.3625 3.66878 12.1406 4.625 12.1406ZM4.625 9.82812C4.94355 9.82812 5.20312 10.0877 5.20312 10.4062C5.20312 10.7248 4.94355 10.9844 4.625 10.9844C4.30645 10.9844 4.04688 10.7248 4.04688 10.4062C4.04688 10.0877 4.30645 9.82812 4.625 9.82812Z" fill="#7E8B9B"/>
<path d="M31.2188 12.7188C32.175 12.7188 32.9532 11.9406 32.9532 10.9844C32.9532 10.0282 32.175 9.25 31.2188 9.25C30.2626 9.25 29.4844 10.0282 29.4844 10.9844C29.4844 11.9406 30.2626 12.7188 31.2188 12.7188ZM31.2188 10.4062C31.5374 10.4062 31.7969 10.6658 31.7969 10.9844C31.7969 11.3029 31.5374 11.5625 31.2188 11.5625C30.9003 11.5625 30.6407 11.3029 30.6407 10.9844C30.6407 10.6658 30.9003 10.4062 31.2188 10.4062Z" fill="#7E8B9B"/>
</svg>
