<svg width="16" height="16" viewBox="0 0 16 16" fill="none" xmlns="http://www.w3.org/2000/svg">
<path d="M7.86432 0.492065C4.98938 0.492065 2.65039 2.83105 2.65039 5.70599C2.65039 9.31949 7.86945 15.4921 7.86945 15.4921C7.86945 15.4921 13.0782 9.14178 13.0782 5.70599C13.0782 2.83105 10.7393 0.492065 7.86432 0.492065ZM9.43747 7.23263C9.00369 7.66632 8.43405 7.88321 7.86432 7.88321C7.29468 7.88321 6.72485 7.66632 6.29126 7.23263C5.4238 6.36526 5.4238 4.95389 6.29126 4.08642C6.7113 3.6662 7.27005 3.43475 7.86432 3.43475C8.45859 3.43475 9.01724 3.66629 9.43747 4.08642C10.3049 4.95389 10.3049 6.36526 9.43747 7.23263Z" fill="#D0C9C9"/>
</svg>
