<svg width="16" height="16" viewBox="0 0 16 16" fill="none" xmlns="http://www.w3.org/2000/svg">
<path d="M6.66667 1.66687C7.59865 1.66683 8.5121 1.92728 9.30392 2.41882C10.0957 2.91036 10.7344 3.61342 11.1479 4.44867C11.5614 5.28392 11.7332 6.21811 11.6439 7.14581C11.5546 8.07351 11.2078 8.95779 10.6427 9.69887L13.8047 12.8622C13.9242 12.9822 13.9937 13.1432 13.9988 13.3125C14.004 13.4818 13.9445 13.6467 13.8325 13.7737C13.7205 13.9008 13.5643 13.9804 13.3957 13.9965C13.2271 14.0125 13.0587 13.9638 12.9247 13.8602L12.862 13.8049L9.69867 10.6429C9.06734 11.1243 8.33044 11.4484 7.54896 11.5885C6.76748 11.7285 5.96389 11.6805 5.20467 11.4483C4.44545 11.2161 3.75243 10.8064 3.18297 10.2532C2.61351 9.70003 2.18396 9.01917 1.92989 8.26699C1.67581 7.51482 1.6045 6.71295 1.72186 5.92774C1.83923 5.14254 2.14189 4.39656 2.6048 3.75155C3.06771 3.10654 3.67756 2.58104 4.3839 2.21853C5.09023 1.85601 5.87274 1.66691 6.66667 1.66687ZM6.66667 3.0002C5.69421 3.0002 4.76158 3.38651 4.07394 4.07415C3.38631 4.76178 3 5.69441 3 6.66687C3 7.63933 3.38631 8.57196 4.07394 9.25959C4.76158 9.94723 5.69421 10.3335 6.66667 10.3335C7.63913 10.3335 8.57176 9.94723 9.25939 9.25959C9.94703 8.57196 10.3333 7.63933 10.3333 6.66687C10.3333 5.69441 9.94703 4.76178 9.25939 4.07415C8.57176 3.38651 7.63913 3.0002 6.66667 3.0002Z" fill="#141E2F"/>
</svg>
